<?xml version="1.0" encoding="UTF-8"?>
<!DOCTYPE svg PUBLIC "-//W3C//DTD SVG 1.1//EN" "http://www.w3.org/Graphics/SVG/1.1/DTD/svg11.dtd">
<!-- Creator: CorelDRAW 2020 (64-Bit) -->
<svg xmlns="http://www.w3.org/2000/svg" xml:space="preserve" width="31.7245mm" height="20.7021mm" version="1.1" style="shape-rendering:geometricPrecision; text-rendering:geometricPrecision; image-rendering:optimizeQuality; fill-rule:evenodd; clip-rule:evenodd"
viewBox="0 0 555.51 362.5"
 xmlns:xlink="http://www.w3.org/1999/xlink"
 xmlns:xodm="http://www.corel.com/coreldraw/odm/2003">
 <defs>
  <style type="text/css">
   <![CDATA[
    .fil0 {fill:#A3C626}
    .fil1 {fill:#0098D5}
    .fil2 {fill:#10498A}
    .fil4 {fill:#0098D5;fill-rule:nonzero}
    .fil3 {fill:#10498A;fill-rule:nonzero}
   ]]>
  </style>
 </defs>
 <g id="Layer_x0020_1">
  <metadata id="CorelCorpID_0Corel-Layer"/>
  <g id="_2086078617248">
   <g>
    <path class="fil0" d="M259.09 41.13c2.03,-4.6 13.36,-15.35 17.65,-18.66 17.73,-13.69 36.14,-11.43 46.53,9.15 3.61,7.15 7.72,20.59 7.57,28.57 -1.64,0.63 -2.46,1.84 -4.15,1.35 -0.87,-0.25 -3.09,-1.38 -4.07,-1.81 -7.69,-3.38 -17.98,-7.04 -25.99,-9.16 -9.08,-2.4 -20.23,-4.7 -29.67,-5.76 -5.03,-0.57 -6.43,0.85 -7.88,-3.68zm103.55 16.82c6.96,11.06 12.57,27.07 13.6,40.38 -1.78,-1.13 -4.93,-5.39 -6.66,-7.23 -2.17,-2.3 -4.38,-4.5 -6.83,-6.7 -2.21,-1.99 -6.39,-3.88 -6.46,-7.01 -0.11,-4.62 -0.12,-6.91 -2.62,-10.93 -5.07,-8.15 -9.63,-4.76 -10.42,-9.65 -0.32,-2 -0.47,-4.03 -0.84,-6.11 -2.04,-11.65 -4.7,-15.25 -5.92,-20.74 7.38,2.78 21.44,20.52 26.15,28zm-26.68 144.18c24.31,-13.24 42.49,-37.92 49.5,-64.6 9.72,-36.96 0.86,-74.19 -24.85,-102.67 -14.26,-15.79 -35.92,-28.36 -56.82,-32.55 -24.47,-4.9 -52.86,-2.33 -74.69,10.55 0.59,0.56 7.49,-1 9.11,-1.25 8.73,-1.33 22.61,-1.45 31.17,0.01 -0.49,1.52 -11.4,10.23 -16.36,16.58 -7.44,9.51 -3.84,4.65 -9.55,6.9 -4.41,1.74 -6.08,4.54 -7.69,8.69 -3.23,0.56 -6.74,0.66 -10.03,1.18l-7.27 1.26c-2.2,0.64 -0.99,-0.02 -2.19,1.39l19.1 0.33c2.6,6.65 2.09,5.01 0.1,11.56 -3.01,9.89 -6.24,34.15 -3.79,41.31 0,0 12.04,-38.73 16.26,-41.63 2.94,-0.84 4.07,-0.44 6.99,-2.43 3.03,-2.06 2.76,-3.32 4.72,-5.53 19.49,1.6 44.33,13.36 61.37,20.82 0.23,5.75 -0.65,8.74 2.92,13.92 3.33,4.85 5.43,4.73 9.9,7.32 1.38,12.43 -0.75,26.17 -1.78,38.64 -0.35,4.28 -1.49,8.62 -1.65,12.8 0.72,-0.54 0.83,0.04 1.76,-2.68 2.76,-8.08 4.3,-12.6 6.56,-21.38 1.1,-4.3 2.04,-8.58 2.85,-12.93 3.16,-16.87 -1.34,-12.48 8.32,-17.64 4.51,2.85 13,11.8 16.06,16.17 11.01,15.72 12.66,31.9 -5.07,43.35 -4.89,3.16 -17.69,8.7 -23.31,8.7 -3.54,-12.98 -20,-9.59 -20.04,1.63 -0.02,5.03 3.79,9.66 8.74,10.08 3.85,0.33 7.85,-1.18 9.85,-4.61l1.76 -3.2c7.61,1.67 12.55,3.07 20.68,2.72 -1.12,10.95 -15.78,28.2 -22.63,37.2z"/>
    <path class="fil1" d="M237.71 203.23c-5.38,-0.73 -21.2,-11.87 -25.82,-15.79 -24.95,-21.17 -39.92,-55.44 -36.19,-88.23 3.31,3.55 3.62,9.65 19.74,24.03 11.59,10.33 18.16,11.76 26.26,17.39 0.57,6.35 0.36,12.36 1.26,18.83 1.47,10.61 3.83,21.7 8.14,31.44 2.06,4.66 4.61,8.21 6.62,12.34zm92.34 -6.99c-7.7,-4.15 -17.1,0.05 -17.95,10.36 -8.8,3.69 -23.42,5.51 -33.11,5.49 -12.01,-0.03 -20.95,-0.11 -29.64,-8.99 -6.32,-6.45 -11.01,-16.43 -13.49,-25.03 -2.39,-8.29 -5.8,-24.52 -4.96,-32.86 1.52,0.19 8.48,3.28 10.43,4.07 6.65,2.71 15.81,5.14 22.74,7.21 3.2,0.95 9.48,1.45 11.99,3.04 1.65,2.38 1.31,4.1 4.08,6.52 2.01,1.76 4.83,2.96 7.54,3.05 5.74,0.18 10.81,-3.33 12.1,-8.82 2.73,-11.59 -10.04,-22.13 -21.75,-10.01 -7.68,-0.19 -40.9,-11.16 -47.4,-15.38l0.44 -6.85c0.62,-1.74 9.3,-3.44 8.26,-13.45 -0.58,-5.58 -5.3,-10.29 -11.05,-10.66 -9.36,-0.6 -16.24,8.97 -11.62,17.87 1.63,3.14 3.16,3.3 5.25,5.3l-0.08 2.85c-4.61,-0.33 -20.43,-13.32 -24.35,-16.99 -6.94,-6.49 -13.34,-15.58 -16.31,-24.66 -2.47,-7.55 -2.12,-9.71 0.64,-16.89 1.91,-4.97 4,-9.05 6.44,-13.75 2.95,-5.68 12.8,-19.8 17.8,-23.34 6.25,0.78 11.28,2.06 15.56,-4.23 7.32,-10.74 -5.22,-24 -16.32,-17.24 -6.56,4 -5.1,8.39 -5.49,14.75 -1.4,3.28 -29.14,23.99 -33.31,72.52 -2.21,25.8 7.52,60.93 25.78,79.88 2.2,2.29 3.71,4.64 6.33,7.18 18.66,18.05 33.74,26.06 60.12,32.09 14.01,3.2 34.45,1.84 48.38,-1.74 6.83,-1.76 6.98,-3.14 9.63,-1.2 5.99,4.36 14.01,2.86 17.78,-3.27 1.42,-2.31 1.79,-3.88 1.8,-5.47 0.02,-5 -1.56,-8.81 -6.28,-11.35z"/>
    <g>
     <path class="fil2" d="M252.08 79.12c3.2,0 5.8,2.6 5.8,5.8 0,3.2 -2.6,5.8 -5.8,5.8 -3.2,0 -5.79,-2.6 -5.79,-5.8 0,-3.2 2.6,-5.8 5.79,-5.8z"/>
     <path class="fil2" d="M310.26 79.09c3.2,0 5.8,2.6 5.8,5.79 0,3.2 -2.6,5.8 -5.8,5.8 -3.2,0 -5.79,-2.6 -5.79,-5.8 0,-3.2 2.59,-5.79 5.79,-5.79z"/>
     <path class="fil2" d="M273.7 114.71c-0.54,-0.44 -0.84,-0.78 -1.23,-1.32 -2.88,-3.95 1.1,-8.39 -0.92,-13.08 -1.01,-2.33 -2.85,-4.02 -5.36,-4.77 -2.94,-0.89 -6,0.12 -7.87,1.81 -4.15,3.74 -3.61,10.42 1.28,13.36 3.58,2.15 11.07,0.69 10.26,10.13 -0.52,2.55 -1.7,5.08 -1.3,7.89 0.37,2.62 1.51,4.81 3.19,6.39 3.8,3.56 9.51,3.99 13.83,0.61 3.74,-2.93 5.46,-8.9 2.42,-13.74 -3.07,-4.87 -6.68,-4.6 -11.06,-5.61 -1.21,-0.28 -2.27,-0.88 -3.23,-1.66z"/>
     <path class="fil2" d="M288.33 92.6l0.02 0.01c0,-0.44 0.09,-2.77 0.08,-2.79 0.22,-2.15 1.03,-3.61 0.19,-5.93 -0.59,-1.62 -1.62,-2.94 -2.87,-3.8 -3.14,-2.16 -7.34,-1.42 -9.7,1.22 -3.83,4.29 -1.32,10.95 3.84,12.09 3.17,0.7 6.25,1.58 6.97,5.17 0.39,1.96 0.16,2.68 -0.34,4.54 -0.83,3.12 -1.48,5.59 0.34,8.88 2.81,5.07 9.87,6.57 14.58,2.27 4.17,-3.81 4.03,-11.13 -1.32,-14.64 -2.77,-1.82 -5.74,-1.24 -8.35,-2.54 -1.94,-0.96 -3.17,-2.36 -3.45,-4.47z"/>
    </g>
   </g>
   <path class="fil3" d="M31.03 297.14l-31.03 -53.68 14.27 0 21.74 38.8 20.72 -38.8 12.45 0 -29.51 53.68 -8.63 0zm59.65 -21.43l23.54 0 -11.6 -21.84 -11.95 21.84zm-24.03 21.43l30.39 -53.68 12.05 0 30.79 53.68 -14.03 0 -6.45 -11.75 -34.05 0 -6.26 11.75 -12.45 0zm97.43 -21.43l23.54 0 -11.6 -21.84 -11.95 21.84zm-24.03 21.43l30.39 -53.68 12.05 0 30.79 53.68 -14.03 0 -6.45 -11.75 -34.05 0 -6.26 11.75 -12.45 0zm127.75 -44.42l-28.07 0 0 14.98 28.07 0c2.17,0 3.64,-0.31 4.44,-0.94 0.8,-0.64 1.2,-1.75 1.2,-3.35l0 -6.47c0,-1.56 -0.4,-2.65 -1.2,-3.29 -0.8,-0.62 -2.27,-0.94 -4.44,-0.94zm-40.34 44.42l0 -53.68 45.88 0c4.28,0 7.39,0.81 9.29,2.46 1.92,1.63 2.88,4.27 2.88,7.92l0 12.62c0,3.62 -0.95,6.26 -2.88,7.91 -1.91,1.65 -5.01,2.48 -9.29,2.48l-7 0 24.81 20.28 -17.93 0 -21.64 -20.28 -11.84 0 0 20.28 -12.27 0zm90.34 -21.43l23.54 0 -11.6 -21.84 -11.94 21.84zm-24.03 21.43l30.39 -53.68 12.05 0 30.79 53.68 -14.03 0 -6.45 -11.75 -34.05 0 -6.26 11.75 -12.45 0zm97.43 -21.43l23.54 0 -11.6 -21.84 -11.95 21.84zm-24.03 21.43l30.39 -53.68 12.05 0 30.79 53.68 -14.03 0 -6.45 -11.75 -34.05 0 -6.26 11.75 -12.45 0zm87.41 0l0 -53.68 12.48 0 0 20.81 39.01 0 0 -20.81 12.59 0 0 53.68 -12.59 0 0 -23.09 -39.01 0 0 23.09 -12.48 0zm88.43 0l0 -53.68 12.48 0 0 53.68 -12.48 0z"/>
   <path class="fil4" d="M86.64 362.5l0 -44.73 45.77 0 0 7.63 -35.37 0 0 9.97 20.63 0 0 7.63 -20.63 0 0 11.1 35.8 0 0 8.41 -46.2 0zm58.5 0l0 -44.73 7.11 0 31.5 26.37c1.07,0.87 2.01,1.69 2.83,2.47 0.82,0.78 1.56,1.58 2.24,2.4 -0.16,-2.51 -0.27,-4.29 -0.33,-5.33 -0.06,-1.05 -0.09,-1.85 -0.09,-2.41l0 -23.49 9.36 0 0 44.73 -7.11 0 -32.85 -27.64c-0.78,-0.71 -1.47,-1.33 -2.07,-1.91 -0.59,-0.56 -1.14,-1.14 -1.65,-1.73 0.13,1.39 0.25,2.69 0.32,3.92 0.07,1.23 0.1,2.3 0.1,3.19l0 24.17 -9.36 0zm83.7 0l-25.86 -44.73 11.89 0 18.12 32.33 17.27 -32.33 10.37 0 -24.59 44.73 -7.2 0zm37.09 0l0 -44.73 10.4 0 0 44.73 -10.4 0zm65.18 -36.93l-29.3 0 0 9.62 27.9 0c4.39,0 7.34,0.75 8.88,2.24 1.55,1.5 2.31,4.28 2.31,8.35l0 6.15c0,4.04 -0.77,6.83 -2.31,8.32 -1.55,1.49 -4.49,2.24 -8.88,2.24l-27.64 0c-4.38,0 -7.34,-0.75 -8.87,-2.24 -1.55,-1.49 -2.31,-4.28 -2.31,-8.32l0 -1.23 9.19 -1.91 0 5.29 31.64 0 0 -10.23 -27.91 0c-4.35,0 -7.28,-0.75 -8.81,-2.24 -1.52,-1.49 -2.28,-4.26 -2.28,-8.32l0 -4.96c0,-4.06 0.77,-6.83 2.28,-8.34 1.53,-1.49 4.47,-2.24 8.81,-2.24l25.4 0c4.2,0 7.11,0.72 8.7,2.15 1.6,1.44 2.4,3.99 2.4,7.66l0 0.94 -9.19 2.17 0 -5.11zm23.58 2.76c0,-4.06 0.77,-6.83 2.28,-8.32 1.52,-1.49 4.45,-2.24 8.8,-2.24l32.93 0c4.36,0 7.31,0.75 8.83,2.24 1.53,1.49 2.3,4.26 2.3,8.32l0 23.59c0,4.09 -0.77,6.88 -2.3,8.35 -1.52,1.49 -4.46,2.22 -8.83,2.22l-32.93 0c-4.35,0 -7.28,-0.74 -8.8,-2.22 -1.52,-1.47 -2.28,-4.26 -2.28,-8.35l0 -23.59zm10.4 25.76l34.33 0 0 -28.35 -34.33 0 0 28.35zm59.82 8.41l0 -44.73 10.4 0 0 36.32 33.55 0 0 8.41 -43.95 0z"/>
  </g>
 </g>
</svg>
